#tb 0: 1/25
#media_type 0: video
#codec_id 0: rawvideo
#dimensions 0: 544x576
#sar 0: 24/17
#tb 1: 1/90000
#media_type 1: audio
#codec_id 1: mp2
#sample_rate 1: 48000
#channel_layout 1: 3
1,          0,          0,     2160,      384, 0x071abcc8
1,       2160,       2160,     2160,      384, 0x31c9aee0
1,       4320,       4320,     2160,      384, 0xa50eaa94
1,       6480,       6480,     2160,      384, 0x9e86ba0e
1,       8640,       8640,     2160,      384, 0x2321b800
1,      10800,      10800,     2160,      384, 0x2347afa8
1,      12960,      12960,     2160,      384, 0x0831b8d3
1,      15120,      15120,     2160,      384, 0xd5acafa1
1,      17280,      17280,     2160,      384, 0xc975b9d2
1,      19440,      19440,     2160,      384, 0x2e10b02a
1,      21600,      21600,     2160,      384, 0x501eadd0
1,      23760,      23760,     2160,      384, 0x153fc171
1,      25920,      25920,     2160,      384, 0xc5f0b3c2
1,      28080,      28080,     2160,      384, 0xf731b200
1,      30240,      30240,     2160,      384, 0x2e16b713
1,      32400,      32400,     2160,      384, 0x61f6bba9
1,      34560,      34560,     2160,      384, 0x1b9eb0ff
1,      36720,      36720,     2160,      384, 0x2ab4b7bd
1,      38880,      38880,     2160,      384, 0xd66eb45c
1,      41040,      41040,     2160,      384, 0x145ab426
1,      43200,      43200,     2160,      384, 0x297cb370
1,      45360,      45360,     2160,      384, 0x287bb6b7
1,      47520,      47520,     2160,      384, 0xfddbb7df
1,      49680,      49680,     2160,      384, 0xbbb2af0c
1,      51840,      51840,     2160,      384, 0x8f03b5fc
